<svg id="_14f19821-22a3-4f5a-9799-1531a263942c_singtelSVG" data-name="14f19821-22a3-4f5a-9799-1531a263942c_singtelSVG" xmlns="http://www.w3.org/2000/svg" width="127.216" height="69.183" viewBox="0 0 127.216 69.183">
  <g id="Group_23" data-name="Group 23">
    <g id="Group_22" data-name="Group 22" transform="translate(23.441)">
      <path id="Path_15" data-name="Path 15" d="M18.493,12.4a4.1,4.1,0,1,1-4.1-4.1A4.079,4.079,0,0,1,18.493,12.4Z" transform="translate(-10.3 10.589)" fill="#3a3a3a"/>
      <path id="Path_16" data-name="Path 16" d="M28.069,7.834a5.234,5.234,0,0,1-10.469,0,5.234,5.234,0,0,1,10.469,0Z" transform="translate(-0.987 3.317)" fill="#3a3a3a"/>
      <path id="Path_17" data-name="Path 17" d="M39.144,6.372a6.372,6.372,0,0,1-12.744,0,6.372,6.372,0,0,1,12.744,0Z" transform="translate(10.24)" fill="#3a3a3a"/>
      <path id="Path_18" data-name="Path 18" d="M49.82,8.21a7.51,7.51,0,0,1-15.02,0A7.577,7.577,0,0,1,42.31.7,7.731,7.731,0,0,1,49.82,8.21Z" transform="translate(20.957 0.893)" fill="#3a3a3a"/>
      <path id="Path_19" data-name="Path 19" d="M60.551,13.475A8.876,8.876,0,1,1,51.676,4.6,8.745,8.745,0,0,1,60.551,13.475Z" transform="translate(31.163 5.868)" fill="#3a3a3a"/>
    </g>
    <path id="Path_20" data-name="Path 20" d="M11.607,12a15.039,15.039,0,0,1,8.648,2.731,1.508,1.508,0,0,1,.455,1.593c-.228.228-1.593,2.276-2.048,2.731a1.376,1.376,0,0,1-1.821,0c-.683-.228-2.731-1.593-5.234-1.593-2.731,0-4.552,1.365-4.552,2.958S8.42,22.7,13.2,24.744c4.779,1.821,7.965,4.552,7.965,9.331,0,5.462-4.1,10.013-10.924,10.013-5.689,0-9.1-2.276-9.786-2.958a1.429,1.429,0,0,1-.228-1.821,28.415,28.415,0,0,0,1.821-2.731c.228-.455.683-.683,1.821-.228A9.193,9.193,0,0,0,9.786,38.4c2.959,0,4.552-1.821,4.552-3.414s-.683-2.731-4.779-4.1C5.462,29.3,3.186,27.475,2.5,26.337A7.754,7.754,0,0,1,.683,21.331C.683,17.689,2.959,12,11.607,12" transform="translate(0 15.309)" fill="#3a3a3a"/>
    <path id="Path_21" data-name="Path 21" d="M17.2,37.647a.979.979,0,0,1-.91.91H11.51a.979.979,0,0,1-.91-.91V16.71a.979.979,0,0,1,.91-.91h4.779a.979.979,0,0,1,.91.91Z" transform="translate(13.523 20.157)" fill="#3a3a3a"/>
    <path id="Path_22" data-name="Path 22" d="M58.689,12.9H53.91a.979.979,0,0,0-.91.91V41.347a.979.979,0,0,0,.91.91h4.779a.979.979,0,0,0,.91-.91V13.81A.834.834,0,0,0,58.689,12.9Z" transform="translate(67.617 16.457)" fill="#3a3a3a"/>
    <path id="Path_23" data-name="Path 23" d="M35.454,26.324V24.958a15.208,15.208,0,0,0-.91-5.234C32.724,16.31,29.765,15.4,26.807,15.4A7.876,7.876,0,0,0,21.8,17.448v-.683a.979.979,0,0,0-.91-.91H16.11a.979.979,0,0,0-.91.91V37.7a.979.979,0,0,0,.91.91h4.779a.979.979,0,0,0,.91-.91V22.227a8.008,8.008,0,0,1,4.1-1.138c3.414,0,2.959,3.641,2.959,4.779V37.93a.979.979,0,0,0,.91.91h4.779a.979.979,0,0,0,.91-.91V26.324Z" transform="translate(19.392 19.647)" fill="#3a3a3a"/>
    <path id="Path_24" data-name="Path 24" d="M37.262,15.5A21.4,21.4,0,0,1,46.82,18V38.94c0,4.552-.683,6.145-3.414,8.193-2.5,2.048-6.6,2.276-7.738,2.276a23.016,23.016,0,0,1-5.234-.91,17.209,17.209,0,0,1-4.1-2.048,1.24,1.24,0,0,1-.455-1.593c.228-.228,1.593-2.5,1.821-2.731A1.2,1.2,0,0,1,29.3,41.9a11.928,11.928,0,0,0,5.917,1.821c2.959,0,5.234-1.138,5.234-4.324V37.347a11.2,11.2,0,0,1-5.007,1.138,10.573,10.573,0,0,1-7.055-2.731A12.318,12.318,0,0,1,25.2,27.106c0-4.324,1.593-6.827,2.5-7.738C28.614,18.914,31.8,15.5,37.262,15.5Zm-.228,5.462c-2.5,0-5.234,2.048-5.234,6.6s3.414,6.145,5.007,6.145a9.4,9.4,0,0,0,3.641-1.138V21.417A10.064,10.064,0,0,0,37.034,20.962Z" transform="translate(32.15 19.774)" fill="#3a3a3a"/>
    <path id="Path_25" data-name="Path 25" d="M49.727,40.337c-.228-.683-.683-1.593-.91-2.5s-1.138-.683-1.593-.683a3.912,3.912,0,0,1-1.821.228c-2.048,0-2.5-1.593-2.5-2.958V25.089h5.462c1.138,0,1.365-.455,1.365-1.365V20.538c0-.91-.91-1.138-1.593-1.138H42.9V13.71a.979.979,0,0,0-.91-.91H37.21a.979.979,0,0,0-.91.91V19.4h0V34.875a9.365,9.365,0,0,0,1.821,5.689c.91,1.138,3.414,2.048,5.917,2.048a17.853,17.853,0,0,0,5.007-.91C49.727,41.7,49.955,41.019,49.727,40.337Z" transform="translate(46.311 16.33)" fill="#3a3a3a"/>
    <path id="Path_26" data-name="Path 26" d="M49.1,29.837c0,2.276,2.276,4.552,5.462,4.552a12.26,12.26,0,0,0,4.779-1.138c1.138-.455,1.365-.228,1.821.455A21.05,21.05,0,0,0,62.3,35.982c.455.91,0,1.365-.91,1.821-1.593,1.138-5.007,1.821-7.51,1.821-5.917,0-11.379-4.1-11.379-11.834,0-8.42,5.689-12.289,10.7-12.289,4.552,0,7.055,1.821,8.648,4.552a16.615,16.615,0,0,1,1.821,7.51V29.61Zm8.648-5.007c0-2.731-1.593-4.324-4.1-4.324-3.869,0-4.552,4.324-4.552,4.324Z" transform="translate(54.221 19.774)" fill="#3a3a3a"/>
  </g>
</svg>
