<svg id="_8b9315d2-c044-4767-9c5c-b9e7b809351f_hpSVG" data-name="8b9315d2-c044-4767-9c5c-b9e7b809351f_hpSVG" xmlns="http://www.w3.org/2000/svg" width="87.845" height="87.844" viewBox="0 0 87.845 87.844">
  <path id="_8b9315d2-c044-4767-9c5c-b9e7b809351f_hpSVG-2" data-name="8b9315d2-c044-4767-9c5c-b9e7b809351f_hpSVG" d="M70.549,30.5H63.494L53.709,57.349h7.055L70.549,30.5ZM43.923,87.844H42.557l8.876-24.578H63.722a5.715,5.715,0,0,0,5.234-3.641L78.742,33c1.593-4.324-.91-7.965-5.462-7.965H56.212l-14.337,39.6h0l-8.193,22.3A44.6,44.6,0,0,1,0,43.922,44.027,44.027,0,0,1,32.089,1.593l-8.42,23.213h0L9.558,63.038h9.331L30.723,30.5h7.055L25.944,63.038h9.331l11.151-30.5c1.593-4.324-.91-7.965-5.462-7.965H33.226L41.874,0h2.048a43.922,43.922,0,1,1,0,87.844Z" fill="#3a3a3a" fill-rule="evenodd"/>
</svg>
