<svg id="aa60dafe-543a-47c4-ab56-c6ae515fa46b_AdidasSVG5" xmlns="http://www.w3.org/2000/svg" width="108.783" height="72.369" viewBox="0 0 108.783 72.369">
  <g id="XMLID_1_">
    <g id="Group_25" data-name="Group 25">
      <path id="Path_49" data-name="Path 49" d="M56.33,29.372H51.779a5.438,5.438,0,0,0-.683-1.593c-.683-.683-1.365-.683-2.5-.683a3.661,3.661,0,0,0-2.5.683c-.228,0-.455.683-.455.91,0,.683.91,1.138,2.959,1.593A44.456,44.456,0,0,0,53.6,31.42a1.124,1.124,0,0,0,.683.228,4.356,4.356,0,0,1,2.959,4.324,5.816,5.816,0,0,1-2.959,5.234c-.228.228-.455.228-.683.455a8.681,8.681,0,0,1-4.324.683,14.4,14.4,0,0,1-5.917-1.138,7.233,7.233,0,0,1-2.276-2.276,5.693,5.693,0,0,1-.683-2.958h5.007a2.471,2.471,0,0,0,.91,2.048,5.164,5.164,0,0,0,2.959.683,3.661,3.661,0,0,0,2.5-.683c.455-.455.683-.683.683-1.138,0-.683-.91-1.365-2.959-1.821-2.959-.683-4.779-1.138-5.234-1.593a4.356,4.356,0,0,1-2.959-4.324A5.49,5.49,0,0,1,42.9,25.276C44.041,23.91,46.089,23,48.82,23a11.377,11.377,0,0,1,5.234.91.223.223,0,0,1,.228.228,9.783,9.783,0,0,1,2.276,2.048C56.1,27.1,56.33,28.007,56.33,29.372Z" transform="translate(51.542 29.342)" fill="#3a3a3a"/>
      <path id="Path_50" data-name="Path 50" d="M47.676,21.21h0c0-.455-.228-.455-.228-.455H46.31v.683h.683c.228.228.455.228.683-.228Zm.228-.455c.228.228.228.228.228.455s-.228.455-.228.683h-.91a.223.223,0,0,1,.228.228l.683.683.455.683h-.683l-.228-.683c-.228-.228-.228-.683-.455-.683h-.91v1.138H45.4V20.3h1.593c.228,0,.455,0,.91.455Z" transform="translate(57.921 25.898)" fill="#3a3a3a"/>
      <path id="Path_51" data-name="Path 51" d="M50.034,22.658c0-.455-.228-.683-.228-1.138a1.7,1.7,0,0,0-.683-.683,1.672,1.672,0,0,0-1.365-.455h0c-.455,0-.683.228-1.138.228a1.7,1.7,0,0,0-.683.683,2.052,2.052,0,0,0-.228,1.138c0,.455.228.683.228,1.138a1.7,1.7,0,0,0,.683.683,2.052,2.052,0,0,0,1.138.228h0c.455,0,.683-.228,1.138-.228a1.7,1.7,0,0,0,.683-.683A.909.909,0,0,0,50.034,22.658Zm.455,0a3.234,3.234,0,0,1-.455,1.365c-.228.455-.683.683-.91.91a3.235,3.235,0,0,1-1.365.455h0a2.44,2.44,0,0,1-1.365-.455c-.455-.228-.683-.683-1.138-.91a3.235,3.235,0,0,1-.455-1.365,2.44,2.44,0,0,1,.455-1.365c.228-.455.683-.683,1.138-1.138a3.235,3.235,0,0,1,1.365-.455h0a3.235,3.235,0,0,1,1.365.455c.455.228.683.683,1.138,1.138C50.489,21.521,50.489,21.976,50.489,22.658Z" transform="translate(57.155 25.132)" fill="#3a3a3a"/>
      <path id="Path_52" data-name="Path 52" d="M52.2,24.578l13.427,22.53H44.23L31.258,25.488,21.7,9.558l9.558-5.917L37.4,0Z" transform="translate(27.685)" fill="#3a3a3a"/>
      <path id="Path_53" data-name="Path 53" d="M50.244,32.986v9.1H45.693v-.91a10.823,10.823,0,0,1-5.234,1.593h0A9.666,9.666,0,0,1,30.9,32.986,9.814,9.814,0,0,1,40.458,23.2h0a9.5,9.5,0,0,1,5.234,1.593V23.655h4.324l.228,9.331Zm-4.552.683V31.848a5.179,5.179,0,0,0-5.234-4.324h0a5.234,5.234,0,1,0,0,10.468h0A4.818,4.818,0,0,0,45.693,33.668Z" transform="translate(39.422 29.597)" fill="#3a3a3a"/>
      <path id="Path_54" data-name="Path 54" d="M40.917,36.175v9.1H36.593v-.91a10.823,10.823,0,0,1-5.234,1.593h0A9.666,9.666,0,0,1,21.8,36.175a9.814,9.814,0,0,1,9.558-9.786h0a9.5,9.5,0,0,1,5.234,1.593V20.7h4.324V36.175Zm-4.324.683V35.037a5.179,5.179,0,0,0-5.234-4.324h0a5.234,5.234,0,1,0,0,10.468h0C33.862,41.409,35.91,39.589,36.593,36.858Z" transform="translate(27.812 26.408)" fill="#3a3a3a"/>
      <path id="Path_55" data-name="Path 55" d="M42.1,28.92,47.564,37.8H25.944L13.883,17.768l-.683-.91.683-.228L29.358,7.3Z" transform="translate(16.84 9.313)" fill="#3a3a3a"/>
      <rect id="Rectangle_48" data-name="Rectangle 48" width="5.007" height="18.889" transform="translate(42.785 52.57)" fill="#3a3a3a"/>
      <rect id="Rectangle_49" data-name="Rectangle 49" width="5.007" height="4.324" transform="translate(42.785 47.108)" fill="#3a3a3a"/>
      <path id="Path_56" data-name="Path 56" d="M28.517,36.175v9.1H24.193v-.91a10.823,10.823,0,0,1-5.234,1.593h0A9.666,9.666,0,0,1,9.4,36.175a9.814,9.814,0,0,1,9.558-9.786h0a9.5,9.5,0,0,1,5.234,1.593V20.7h4.324Zm-4.552.683V35.037a5.179,5.179,0,0,0-5.234-4.324h0a5.234,5.234,0,1,0,0,10.468h0A4.691,4.691,0,0,0,23.965,36.858Z" transform="translate(11.992 26.408)" fill="#3a3a3a"/>
      <path id="Path_57" data-name="Path 57" d="M24.344,20.845l4.552,7.51H7.276L5,24.258,20.475,14.7Z" transform="translate(6.379 18.754)" fill="#3a3a3a"/>
      <path id="Path_58" data-name="Path 58" d="M19.344,32.986v9.1H14.793v-.91a10.823,10.823,0,0,1-5.234,1.593h0A9.666,9.666,0,0,1,0,32.986,9.814,9.814,0,0,1,9.558,23.2h0a9.5,9.5,0,0,1,5.234,1.593V23.655h4.324l.228,9.331Zm-4.552.683V31.848a5.179,5.179,0,0,0-5.234-4.324h0a5.234,5.234,0,1,0,0,10.468h0A4.691,4.691,0,0,0,14.793,33.668Z" transform="translate(0 29.597)" fill="#3a3a3a"/>
    </g>
  </g>
</svg>
