<svg id="basf" xmlns="http://www.w3.org/2000/svg" width="156.707" height="29.585" viewBox="0 0 156.707 29.585">
  <path id="basf-2" data-name="basf" d="M155.2.811h15.671c5.674,0,8.376,3.783,8.376,7.295,0,2.567-.946,4.188-3.512,5.674,3.242,1.216,5,3.377,5,6.755,0,4.053-2.972,8.376-9.862,8.376H155.2Zm8.511,21.75h5.674a2.774,2.774,0,0,0,2.972-2.7,2.415,2.415,0,0,0-2.7-2.3h-5.944Zm0-10.672H168.3c2.026,0,2.972-.946,2.972-2.432a2.139,2.139,0,0,0-2.3-2.161h-5.134v4.593ZM189.512.811h9.051l10.267,28.1h-9.321l-1.351-4.188h-8.646L188.3,28.909H179.11ZM193.7,9.186l-2.432,9.321H196.4Zm29.585,0c0-2.161-1.891-3.107-3.783-3.107.675,0-3.242-.27-3.242,2.026,0,1.891,2.972,2.432,3.918,2.7,1.756.54,5.269,1.216,7.43,2.026a7.557,7.557,0,0,1,5.133,7.16c0,3.377-2.161,9.591-12.7,9.591-9.592,0-12.969-5.4-12.969-10.4h9.051c0,3.647,3.512,4.053,4.593,4.053,1.621,0,3.512-.811,3.512-2.432,0-.946-.946-1.756-1.891-2.161-1.216-.405-5.809-1.621-6.89-2.026-.27,0-7.7-1.621-7.7-7.7,0-3.783,2.837-8.916,12.158-8.916,8.376,0,12.023,4.458,12.023,9.186ZM234.227.811h21.48v7.43H242.873v5h11.483v7.025H242.738v8.646h-8.511ZM99,28.909V.811h28.1v28.1Zm19.453-8.646V9.456H107.646V20.263ZM135.745,9.456h10.807V20.263H135.745Z" transform="translate(-99)" fill="#3a3a3a"/>
</svg>
