<svg id="bmw" xmlns="http://www.w3.org/2000/svg" width="72.825" height="72.824" viewBox="0 0 72.825 72.824">
  <path id="bmw-2" data-name="bmw" d="M250.033,36.412a33.683,33.683,0,1,1-33.378-33.62,33.6,33.6,0,0,1,33.378,33.62Zm-55.1,0A21.544,21.544,0,1,0,216.9,14.929a21.445,21.445,0,0,0-21.969,21.483ZM238.26,21.726s2.063-3.156,3.156-4.612l-1.456-1.821-5.1,2.185v-.121c1.092-1.456,2.185-2.913,3.4-4.369-.486-.607-.85-1.092-1.335-1.7-1.942,2.427-3.763,4.734-5.583,7.161.485.607,1.578,1.942,1.578,1.942s5.219-1.942,5.34-2.063a50.261,50.261,0,0,0-3.4,4.734,23.336,23.336,0,0,1,1.578,2.063c2.67-1.335,5.462-2.67,8.132-4.005-.364-.485-1.335-1.821-1.335-1.821ZM189.1,19.177c2.306,1.942,4.491,3.763,6.8,5.7l.243-.243c1.456-1.7,2.913-3.52,4.369-5.219a3.686,3.686,0,0,0,.607-.85,2.011,2.011,0,0,0-.243-2.427,2.321,2.321,0,0,0-2.427-.85c-.243,0-.364.121-.607.243a2.1,2.1,0,0,0-.486-2.063,1.842,1.842,0,0,0-2.913-.364,1.462,1.462,0,0,0-.607.607c-1.7,1.821-3.156,3.641-4.734,5.462ZM213.256,7.525l2.428,5.947H217.5l2.428-5.826v5.947h1.821V4.734H219.2l-2.549,6.19-2.428-6.19h-2.67v8.86h1.821ZM196.264,22.09c-.607-.485-1.092-.971-1.7-1.456l.607-.607c.607-.85,1.335-1.7,2.063-2.549a1.144,1.144,0,0,1,1.456-.243,1.166,1.166,0,0,1,.243,1.578c-.85,1.092-1.7,2.185-2.67,3.277Zm-2.792-2.306a16.313,16.313,0,0,0-1.7-1.335,18.157,18.157,0,0,1,1.335-1.578c.486-.485.85-1.092,1.335-1.578a1.1,1.1,0,0,1,1.456,0,.888.888,0,0,1,.243,1.335c-.85,1.092-1.821,2.063-2.67,3.156Zm22.94,36.655V36.412H196.385c-.364-10.559,8.739-20.269,20.027-20.148V36.412h20.027C236.8,46.972,227.7,56.681,216.412,56.439Zm0-56.439A36.412,36.412,0,1,1,180,36.412,36.364,36.364,0,0,1,216.412,0Zm-.243,71.489a35.138,35.138,0,1,0-34.835-35.2A35.2,35.2,0,0,0,216.169,71.489Z" transform="translate(-180)" fill="#3a3a3a"/>
</svg>
