<svg id="c63de838-826b-44d8-a2e7-f174de26e9df_DisneySVG_1_" data-name="c63de838-826b-44d8-a2e7-f174de26e9df_DisneySVG (1)" xmlns="http://www.w3.org/2000/svg" width="171.502" height="71.039" viewBox="0 0 171.502 71.039">
  <path id="c63de838-826b-44d8-a2e7-f174de26e9df_DisneySVG_1_2" data-name="c63de838-826b-44d8-a2e7-f174de26e9df_DisneySVG (1)" d="M148.321,30.7a92.626,92.626,0,0,1-10.469,1.138l-.91,2.958a28.93,28.93,0,0,1,6.6,0,.892.892,0,0,1,.91.91v2.276s0,.683-.91.91-8.42.455-8.42.455l-1.365,3.869s-.455.91.683.683c.91-.228,8.42-1.593,9.558-1.365.91.228,2.276,1.593,1.821,2.958-.455,1.593-7.965,6.372-12.517,6.145,0,0-2.5.228-4.552-2.958-2.048-2.958.683-8.875.683-8.875s-1.138-2.731-.228-3.641a3.865,3.865,0,0,1,2.048-.683l1.821-3.869a4.209,4.209,0,0,1-3.414-1.365c-1.138-1.365-1.138-2.276-.455-2.5.91-.455,9.786-2.048,15.7-1.821,0,0,2.048-.228,4.1,3.414.228-.455,1.138,1.138-.683,1.365m-22.53,14.792c-.91,1.821-2.731,3.641-5.234,2.731-2.5-1.138-6.6-9.331-6.6-9.331s-1.365-2.958-1.821-2.731c0,0-.455-.683-.455,2.731-.228,3.186,0,9.786-1.138,10.7A2.433,2.433,0,0,1,106.9,48.9q-1.024-1.707-.683-8.875c.228-4.779,1.593-10.241,2.959-11.834a1.743,1.743,0,0,1,2.959,0,44.364,44.364,0,0,1,5.007,6.827l.683.91s2.731,4.779,3.186,4.779a.315.315,0,0,0,.455,0c.228,0,.228-1.593.228-1.593a110.72,110.72,0,0,0-3.186-14.11,4.536,4.536,0,0,1-.228-2.276c.228-1.138,1.138-.455,1.138-.455s4.1,2.048,6.145,8.648a23.625,23.625,0,0,1,.228,14.565m-20.254-17.3a3.446,3.446,0,0,1-2.276,2.048s-16.613,1.138-17.524,2.5c0,0-.683.683.455.91.91.228,4.779.683,6.6.91,2.048,0,8.42,0,10.7,2.958,0,0,1.365,1.365,1.138,4.552,0,3.186-.683,4.551-1.821,5.462s-12.517,6.145-19.8-1.593c0,0-3.186-3.641,1.138-6.6,0,0,3.186-2.048,11.606.455,0,0,2.5.91,2.5,1.821-.228.91-2.048,2.048-4.779,2.048a8.347,8.347,0,0,1-4.324-1.138c.455.228-2.731-1.593-3.869-.455-.91.91-.91,1.821.228,2.5,2.5,1.365,12.062.91,15.248-2.5,0,0,1.138-1.138-.683-2.5-1.821-.91-6.827-1.593-8.648-1.593s-8.876,0-10.013-1.821c0,0-.91-1.138,0-4.779,1.138-3.641,9.331-5.007,12.744-5.462,0,0,9.786-.455,11.606,1.593-.228-.455,0,.228-.228.683M78.227,50.268c-1.138.91-3.641.455-4.552-.455-.683-.91-.91-4.324-.91-9.786.228-5.462.228-12.061,1.365-13.427,1.138-.91,2.048-.228,2.5.683a5.854,5.854,0,0,1,1.138,3.186c.228,1.821.683,10.7.683,10.7s.683,8.193-.228,9.1m2.5-29.357c-3.414,1.138-5.689.91-7.738,0-.91,1.593-1.365,2.048-2.048,2.276-.91,0-1.821-1.365-2.048-2.048-.228-.455-.683-.91,0-2.731a6,6,0,0,1-1.821-5.689C67.531,10.9,70.717,4.07,80.731,3.16c0,0,4.779-.455,5.689,2.276h.228s4.779,0,4.779,4.324c-.228,4.324-5.462,9.558-10.7,11.151M85.055,9.077c-2.959.455-7.738,4.552-10.241,7.965,3.641.683,9.786.455,12.517-5.234,0,.228,1.138-3.414-2.276-2.731M71.4,11.808c-.91,1.593-.91,2.731-.683,3.186a21.223,21.223,0,0,1,6.372-6.6A7.008,7.008,0,0,0,71.4,11.808M155.832,50.04a69.169,69.169,0,0,0-5.234,19.8s-.228,1.593-1.593,1.138-3.641-2.731-4.1-5.917c-.455-4.1,1.365-11.151,5.007-19.116a11.868,11.868,0,0,1-1.138-7.965s.91-6.6,7.738-12.744c0,0,.91-.683,1.138-.455.683.228.455,2.5-.228,3.414-.455.91-3.414,5.917-3.414,5.917s-1.821,3.414-1.365,6.372c3.414-5.462,11.607-16.385,16.386-12.972,3.186,2.276,3.186,9.558.91,13.655-1.593,3.641-6.827,10.468-14.11,8.875M166.3,33.2a52.914,52.914,0,0,0-7.738,10.924,11.9,11.9,0,0,0,6.372-2.731c1.138-1.138,4.324-4.324,3.869-8.42,0,0-.455-2.276-2.5.228M55.014,52.771C46.366,55.5,37.946,54.137,33.394,53q-.341,2.731-.683,2.731c-.455.455-3.186,2.048-4.779-.228a13.4,13.4,0,0,1-1.138-4.779C16.554,45.944,12,39.344,11.774,38.889c-.228,0-2.731-2.5-.228-5.462,2.276-2.731,9.331-5.462,15.7-6.6.228-5.462.91-9.786,1.593-11.606.91-2.276,2.048-.228,2.959,1.138.91,1.138,1.365,5.917,1.365,9.786a39.717,39.717,0,0,1,11.379.91c6.145.91,10.241,4.324,10.013,7.738S51.145,39.572,49.78,39.8a11.056,11.056,0,0,1-3.186-.91c-1.365-.683-.228-1.138,1.365-2.048,1.821-.91,1.365-1.821,1.365-1.821-.683-2.048-8.42-3.186-16.386-3.186,0,4.324.228,11.606.228,15.93a64.5,64.5,0,0,0,9.558.91s20.027-.683,20.71-13.427c.683-12.517-19.8-25.033-35.047-28.9s-23.9-.91-24.806-.683c-.91.455,0,.683,0,.683A7.966,7.966,0,0,1,5.857,6.8c1.365.455.455,1.138.455,1.138-2.731.91-5.689.455-6.145-.683S.623,4.981,1.533,3.388A2.94,2.94,0,0,1,3.809,2.022C22.7-4.578,45.684,7.256,45.684,7.256,67.3,17.952,70.945,30.7,70.49,35.7c-.228,5.007-2.276,13.2-15.475,17.068M13.595,35.248a1.6,1.6,0,0,0-.683,2.731,33.032,33.032,0,0,0,13.655,8.648,110.754,110.754,0,0,0,.455-13.882c-7.283.228-11.379,1.365-13.427,2.5" transform="translate(-0.047 -0.021)" fill="#3a3a3a"/>
</svg>
