<svg id="Component_7_7" data-name="Component 7 – 7" xmlns="http://www.w3.org/2000/svg" xmlns:xlink="http://www.w3.org/1999/xlink" width="188.254" height="49.715" viewBox="0 0 188.254 49.715">
  <defs>
    <clipPath id="clip-path">
      <rect x="39" width="188.254" height="49.715" fill="none"/>
    </clipPath>
  </defs>
  <g id="Scroll_Group_3" data-name="Scroll Group 3" transform="translate(-39)" clip-path="url(#clip-path)" style="isolation: isolate">
    <path id="xl-axiata" d="M128,591l14.512,8.331L128,607.8Zm15.587,28.082-15.318-8.868,15.318-8.868Zm2.284-17.736,15.318,8.868-15.318,8.868Zm-2.284,39.369-15.318-8.868,15.318-8.868ZM162.4,629.831l-15.452-8.868L162.4,612.1Zm-16.527-6.853,15.318,8.868-15.318,8.868Zm119.318,9v.134h-5.778l-4.434-6.449-4.434,6.449H244.5l7.256-10.48-7.525-10.615h6.584l4.165,6.584.134-.134s1.747-2.822,2.553-3.9a5.93,5.93,0,0,1,5.106-2.553h2.553l-7.39,10.212Zm7.525,0h-5.24V614.514a3.2,3.2,0,0,1,.806-1.881,11.461,11.461,0,0,1,4.434-2.284Zm27.142-.941c-.941-.806-1.612-2.419-1.612-4.837v-17.87a3.659,3.659,0,0,1,.941-2.687,10.936,10.936,0,0,1,4.434-2.687v7.928h6.987l-2.419,4.434h-4.569V625.8a2.478,2.478,0,0,0,.537,1.747,2.063,2.063,0,0,0,1.747.672,6.014,6.014,0,0,0,2.687-.537v3.628a9.183,9.183,0,0,1-4.569,1.075,5.768,5.768,0,0,1-4.165-1.344Zm20.692-20.289c2.822,0,5.106.269,6.987,2.553,1.478,1.478,2.016,3.9,2.016,6.718V632.25h-5.106v-1.075l-.134.134a3.283,3.283,0,0,1-1.209.672,13.5,13.5,0,0,1-4.3.672,9.724,9.724,0,0,1-5.375-1.478,6.552,6.552,0,0,1,0-9.943,10.13,10.13,0,0,1,6.181-1.612c2.419,0,4.837.269,4.837.269h.134v-.537A3.558,3.558,0,0,0,323.5,616.4c-.806-.806-2.15-.941-3.762-.941a20.535,20.535,0,0,0-6.047,1.075v-2.822a1.654,1.654,0,0,1,.672-1.344,12.357,12.357,0,0,1,6.181-1.612Zm-2.822,17.467a4.461,4.461,0,0,0,2.15.672,5.269,5.269,0,0,0,2.419-.538,3.633,3.633,0,0,0,2.15-3.359v-1.747a11.637,11.637,0,0,0-3.359-.4h-.4c-2.016.134-3.225.672-3.762,1.612a2.414,2.414,0,0,0-.4,1.478A2.81,2.81,0,0,0,317.726,628.219Zm-32.383-17.467c2.822,0,5.106.269,6.987,2.553,1.478,1.478,2.016,3.9,2.016,6.718V632.25h-5.106v-1.075l-.134.134a2.18,2.18,0,0,1-1.209.672,13.5,13.5,0,0,1-4.3.672,9.724,9.724,0,0,1-5.375-1.478,6.552,6.552,0,0,1,0-9.943,10.13,10.13,0,0,1,6.181-1.612c2.419,0,4.837.269,4.837.269h.134v-.537A3.432,3.432,0,0,0,288.3,616.4c-.806-.806-2.15-.941-3.762-.941a21.306,21.306,0,0,0-6.047,1.075v-2.822a1.654,1.654,0,0,1,.672-1.344,12.87,12.87,0,0,1,6.181-1.612Zm-2.822,17.467a4.461,4.461,0,0,0,2.15.672,5.269,5.269,0,0,0,2.419-.538,3.633,3.633,0,0,0,2.15-3.359v-1.747a11.637,11.637,0,0,0-3.359-.4h-.4c-2.016.134-3.225.672-3.762,1.612a2.414,2.414,0,0,0-.4,1.478A2.81,2.81,0,0,0,282.522,628.219Zm-49.178-17.467c2.822,0,5.106.269,7.121,2.553,1.478,1.478,2.016,3.9,2.016,6.718V632.25h-5.106v-1.075l-.134.134a3.283,3.283,0,0,1-1.209.672,13.5,13.5,0,0,1-4.3.672,9.724,9.724,0,0,1-5.375-1.478,6.552,6.552,0,0,1,0-9.943c1.478-1.209,3.628-1.612,6.047-1.612a46.69,46.69,0,0,1,4.837.269h.134v-.537A3.432,3.432,0,0,0,236.3,616.4c-.806-.806-2.15-.941-3.762-.941a22.129,22.129,0,0,0-6.047,1.075v-2.822a1.654,1.654,0,0,1,.672-1.344,12.358,12.358,0,0,1,6.181-1.612Zm-2.822,17.467a4.461,4.461,0,0,0,2.15.672,5.269,5.269,0,0,0,2.419-.538,3.633,3.633,0,0,0,2.15-3.359v-1.747a11.637,11.637,0,0,0-3.359-.4h-.4c-2.016.134-3.225.672-3.762,1.612a2.414,2.414,0,0,0-.4,1.478A2.81,2.81,0,0,0,230.522,628.219ZM181.881,621.5l-6.987-10.346h6.718l3.762,5.912,3.762-5.912h6.584l-6.987,10.212,7.256,10.884h-6.718L185.24,625.8l-4.031,6.449h-6.584Zm16.258-10.346h5.912v15.989h10.212v5.106H198.139Z" transform="translate(-128 -591)" fill="#3a3a3a"/>
  </g>
</svg>
