<svg id="Component_8_4" data-name="Component 8 – 4" xmlns="http://www.w3.org/2000/svg" xmlns:xlink="http://www.w3.org/1999/xlink" width="134.079" height="36.241" viewBox="0 0 134.079 36.241">
  <defs>
    <clipPath id="clip-path">
      <rect x="48" width="134.079" height="36.241" fill="none"/>
    </clipPath>
  </defs>
  <g id="Scroll_Group_2" data-name="Scroll Group 2" transform="translate(-48)" clip-path="url(#clip-path)" style="isolation: isolate">
    <path id="bosch" d="M147.886,29.742c0-1.459-.973-2.311-3.162-2.311h-4.256v4.743h4.256C146.67,32.174,147.886,31.445,147.886,29.742Zm-.73-9.364a2.21,2.21,0,0,0-2.189-2.311h-4.378v4.5h4.256a2.208,2.208,0,0,0,2.311-2.189Zm7.053,10.094c0,4.013-3.648,6.689-7.3,6.689H134.752V13.082h11.067c4.256,0,7.3,2.189,7.3,6.567a5.354,5.354,0,0,1-3.284,4.986A5.84,5.84,0,0,1,154.21,30.472Zm18-5.351c0-3.77-1.7-6.81-4.986-6.81s-4.986,3.04-4.986,6.81,1.7,6.81,4.986,6.81,4.986-3.04,4.986-6.81Zm5.716,0c0,7.053-4.013,12.647-10.823,12.647s-10.823-5.594-10.823-12.647S160.29,12.474,167.1,12.474C174.032,12.474,177.924,18.068,177.924,25.121Zm20.309,4.743c0,5.351-4.621,7.9-9.121,7.9-5.108,0-7.783-1.946-9.729-4.5l3.77-3.77a7.394,7.394,0,0,0,5.959,3.162c1.946,0,3.162-.973,3.162-2.432s-1.095-2.067-4.256-2.675l-.851-.243c-3.77-.73-6.81-2.919-6.81-7.3,0-4.743,3.77-7.54,8.756-7.54a10.927,10.927,0,0,1,8.634,3.77L194.1,19.892a6.647,6.647,0,0,0-4.864-2.311c-1.338,0-2.8.608-2.8,2.311,0,1.459,1.581,1.946,3.527,2.432l.851.243c3.284.73,7.418,1.7,7.418,7.3Zm22.376,2.675c-2.432,3.527-4.621,5.229-9.364,5.229-6.567,0-10.945-5.594-10.945-12.769,0-6.81,3.892-12.4,10.945-12.4,3.892,0,6.689,1.581,9,5.229L215.5,21.108a4.542,4.542,0,0,0-4.256-2.675c-2.675,0-5.108,2.432-5.108,6.689,0,4.864,2.8,7.053,5.351,7.053,2.189,0,3.284-1.094,4.256-2.8Zm22.012,4.621h-6.2V27.675h-7.175V37.16h-6.081V13.082h6.081v8.878h7.175V13.082h6.2ZM81,25.243C81,15.149,89.026,6.88,98.877,7A16.92,16.92,0,0,1,111.4,12.352a18.522,18.522,0,0,1,5.108,12.891A17.716,17.716,0,0,1,86.229,38.012,17.625,17.625,0,0,1,81,25.243Zm6.81,11.188A15.418,15.418,0,0,0,99,40.93a15.625,15.625,0,0,0,15.445-15.809,16.214,16.214,0,0,0-4.5-11.31A15.1,15.1,0,0,0,99,9.069,16.014,16.014,0,0,0,83.189,25.243,15.531,15.531,0,0,0,87.81,36.431Zm16.418-22.376a.911.911,0,0,1,.73-.851.447.447,0,0,1,.365.122,13.922,13.922,0,0,1,6.2,11.8A13.631,13.631,0,0,1,105.2,36.674a.377.377,0,0,1-.243.122c-.608,0-.73-.243-.73-.486V30.35H93.283v5.959s-.122.486-.486.486a.447.447,0,0,1-.365-.122,13.012,13.012,0,0,1-6.567-11.431,13.99,13.99,0,0,1,6.567-11.8.447.447,0,0,1,.365-.122c.243,0,.486,0,.486.73v5.594h10.945ZM90.364,31.323l.486.608V17.946l-.486.73a12.639,12.639,0,0,0-1.946,6.445,10.963,10.963,0,0,0,1.946,6.2Zm2.919-3.648v.243h10.945V22.2H93.283Zm13.377-8.756v13.5l.486-.73a11.909,11.909,0,0,0,1.946-6.445,13.678,13.678,0,0,0-1.946-6.689l-.486-.73Z" transform="translate(-81 -7)" fill="#3a3a3a"/>
  </g>
</svg>
