<svg id="g4158" xmlns="http://www.w3.org/2000/svg" width="125.012" height="41.334" viewBox="0 0 125.012 41.334">
  <path id="polygon9" d="M110.642,144.751H100.56l7.057-39.318H117.7Z" transform="translate(-57.209 -104.425)" fill="#3a3a3a"/>
  <path id="path11" d="M138.336,107.006a20.131,20.131,0,0,0-9.073-2.016c-10.082,0-17.139,5.041-17.139,13.106,0,6.049,5.041,9.073,9.073,11.09s5.041,3.024,5.041,5.041c0,3.024-3.024,4.033-6.049,4.033-4.033,0-6.049-1.008-10.082-2.016l-1.008-1.008-1.008,9.073c2.016,1.008,7.057,2.016,11.09,2.016,11.09,0,18.147-5.041,18.147-13.106,0-4.033-3.024-8.065-9.073-11.09-4.033-2.016-6.049-3.024-6.049-5.041s2.016-3.024,6.049-3.024a18.993,18.993,0,0,1,8.065,2.016h1.008l1.008-9.073Z" transform="translate(-47.601 -104.99)" fill="#3a3a3a"/>
  <path id="path13" d="M136.626,130.637c1.008-2.016,4.033-11.09,4.033-11.09a10.428,10.428,0,0,0,1.008-4.033l1.008,3.024s2.016,9.073,2.016,11.09c-1.008,1.008-6.049,1.008-8.065,1.008Zm12.1-25.2h-8.065a5.544,5.544,0,0,0-5.041,3.024l-15.122,36.293h11.09s2.016-5.041,2.016-6.049h13.106c0,1.008,1.008,6.049,1.008,6.049h9.073l-8.065-39.318Z" transform="translate(-31.776 -104.425)" fill="#3a3a3a"/>
  <path id="path15" d="M111.145,105.433l-10.082,27.22-1.008-5.041c-2.016-6.049-8.065-13.106-14.114-16.13l9.073,34.277H106.1l16.131-39.318h-11.09v-1.008Z" transform="translate(-75.859 -104.425)" fill="#3a3a3a"/>
  <path id="path17" d="M97.642,105.433H81.511v1.008c13.106,3.024,21.171,11.09,25.2,21.171l-4.033-18.147c-1.008-3.024-3.025-4.033-5.041-4.033Z" transform="translate(-81.511 -104.425)" fill="#3a3a3a"/>
</svg>
