<svg id="Layer_2" xmlns="http://www.w3.org/2000/svg" width="83.977" height="19.344" viewBox="0 0 83.977 19.344">
  <path id="Path_34" data-name="Path 34" d="M38.265,30.744l.91-.455.228-1.138-.683-3.414-1.138-2.276-2.276-2.731-3.869-6.145-.91-1.593h2.048l2.048.455,1.593,1.138.91,1.821.455,1.138H39.4V11.4H23.7v1.593l.91,3.414,1.138,2.276,1.821,2.276,4.1,6.145.91,1.593h-2.5l-1.593-.455-1.593-.683-.91-2.276-.228-1.138H23.7v6.6Z" transform="translate(26.595 -11.4)" fill="#3a3a3a" fill-rule="evenodd"/>
  <path id="Path_35" data-name="Path 35" d="M18,11.4v1.593h.683l.91.455.455,1.138V27.558l-.455.683-.91.455L18,29.151v1.593H28.469V28.7l-1.138-.455-.91-.683V14.131l.455-.683,1.593-.455V11.4Z" transform="translate(19.323 -11.4)" fill="#3a3a3a" fill-rule="evenodd"/>
  <path id="Path_36" data-name="Path 36" d="M9.6,11.4H26.668v6.145h-2.5V16.407l-1.138-2.276-2.048-1.138H18.02V19.82l2.276-.455.228-1.138v-.455h2.048v6.372H20.524v-.228L20.3,22.551l-1.365-.683h-.91v7.282H20.3l1.138-.455,1.821-1.138,1.365-3.414h2.048v6.6H9.6V29.151l1.593-.455.455-1.138V14.586l-.455-1.138L9.6,12.993Z" transform="translate(8.607 -11.4)" fill="#3a3a3a" fill-rule="evenodd"/>
  <path id="Path_37" data-name="Path 37" d="M1.6,30.744v-.91l.228-2.048L3.193,24.6l3.186-3.869,4.1-6.145.683-1.593H8.883l-2.048.455L5.241,14.586l-.455,1.821-.455,1.138h-2.5V11.4H18.213l-.455,2.731L16.62,17.545l-2.5,3.414-2.959,3.186-1.593,2.5L9.338,28.7l1.821.455,1.821-.455,1.593-1.138,1.138-1.821.455-1.138h1.593v6.145Z" transform="translate(-1.6 -11.4)" fill="#3a3a3a" fill-rule="evenodd"/>
  <path id="Path_38" data-name="Path 38" d="M46.065,30.744l.91-.455.455-1.138-.91-3.414-1.138-2.276-2.048-2.731-4.1-6.145L38.1,12.993h2.5l1.821.455,1.593,1.138.91,1.821.455,1.138H47.43V11.4H31.5v1.593l.91,3.414,1.138,2.276L35.6,20.958l4.1,6.145L40.6,28.7H38.1l-1.593-.455-1.821-.683L34,25.282l-.455-1.138H31.5v6.6Z" transform="translate(36.546 -11.4)" fill="#3a3a3a" fill-rule="evenodd"/>
</svg>
