<svg id="mann" xmlns="http://www.w3.org/2000/svg" width="146.432" height="52.518" viewBox="0 0 146.432 52.518">
  <path id="mann-2" data-name="mann" d="M147.755,28.576h5.252V52.208h-5.252V42.632h-10.5v9.577H132V28.576h5.252v9.268h10.5ZM167.99,52.517c-6.488,0-10.195-3.553-10.195-10.5V28.576h5.252V42.014c0,3.862,1.854,5.87,5.1,5.87s5.1-1.854,5.1-5.715V28.576h5.252V41.859c0,7.105-4.016,10.658-10.5,10.658Zm-17.3-28.73V8.341l-6.8,10.195h-.154L137.1,8.5V23.787H132V.155h5.715l6.179,10.04L150.227.155h5.715V23.787Zm52.364,0L190.851,8.8V23.787H185.6V.155h4.943l11.894,14.519V.155h5.1V23.787Zm26.413,0L217.264,8.8V23.787h-5.252V.155h4.943l11.739,14.519V.155h5.252V23.787ZM201.046,52.209V36.762L194.713,46.8h-.154l-6.333-10.04V52.209h-5.1V28.576h5.715l5.87,9.886,5.87-9.886H206.3V52.209Zm27.649,0V36.762L222.362,46.8h-.154l-6.179-10.04V52.209h-5.252V28.576h5.715l5.87,9.886,6.024-9.886h5.561V52.209Zm9.731,0V28.576h18.381V33.21h-13.13V38h11.585v4.634H243.678v4.943h13.13v4.634Zm22.861,0V28.576h5.252V47.42h11.894v4.788ZM173.087,0l10.5,23.787H178.03l-2.163-5.252H165.518l-2.163,5.252H157.95L168.3,0Zm-5.715,13.9h6.8l-3.4-7.723Zm99.012-4.325v4.788h-9.731v9.422H251.71V14.365h-9.731V9.577h9.731V.155h4.943V9.577Z" transform="translate(-132)" fill="#3a3a3a"/>
</svg>
