<svg id="siemens" xmlns="http://www.w3.org/2000/svg" width="181.546" height="28.885" viewBox="0 0 181.546 28.885">
  <path id="siemens-2" data-name="siemens" d="M179.423,1.014V6.42a21.548,21.548,0,0,0-7.478-1.592,5.99,5.99,0,0,0-3.1.7,2.027,2.027,0,0,0-1.169,1.72c0,.9.874,1.7,2.634,2.422l5.084,2.474c4.11,1.959,6.149,4.561,6.149,7.829a7.636,7.636,0,0,1-3.264,6.488c-2.167,1.62-5.084,2.422-8.715,2.422a40.433,40.433,0,0,1-4.517-.223,34.877,34.877,0,0,1-4.577-.862V22.141A26.879,26.879,0,0,0,169,23.733c3.057,0,4.577-.886,4.577-2.673,0-.89-.622-1.608-1.887-2.171l-5.646-2.406a11.623,11.623,0,0,1-4.645-3.435,7.772,7.772,0,0,1-1.5-4.716,7.172,7.172,0,0,1,3.136-6.049A13.929,13.929,0,0,1,171.383,0a31.038,31.038,0,0,1,3.859.283c1.448.2,2.841.435,4.182.73Zm-159.911,0V6.42a21.529,21.529,0,0,0-7.474-1.592,5.98,5.98,0,0,0-3.1.7A2.027,2.027,0,0,0,7.773,7.25c0,.9.886,1.7,2.646,2.422L15.5,12.146c4.094,1.959,6.137,4.561,6.137,7.829a7.664,7.664,0,0,1-3.252,6.488C16.2,28.083,13.3,28.885,9.66,28.885a40.51,40.51,0,0,1-4.521-.223A35.193,35.193,0,0,1,.567,27.8V22.141a26.994,26.994,0,0,0,8.527,1.592c3.057,0,4.577-.886,4.577-2.673,0-.89-.618-1.608-1.871-2.171L6.153,16.483a11.4,11.4,0,0,1-4.645-3.435A7.673,7.673,0,0,1,0,8.331,7.146,7.146,0,0,1,3.14,2.282,13.857,13.857,0,0,1,11.476,0a31.268,31.268,0,0,1,3.87.283c1.437.2,2.829.435,4.166.73ZM25.338.507h8.28V28.378h-8.28Zm34.954,0V5.658H47.99v6.181H58.66v4.645H47.99v6.488H60.543v5.407H40.022V.507Zm38.653,0V28.378H91.215V10L83.2,28.633H78.423L70.71,10V28.378H65.12V.507H75.227l6.9,17.062L89.344.507Zm26.663,0V5.658H113.373v6.181h10.67v4.645h-10.67v6.488h12.486v5.407H105.337V.507Zm29.052,0V28.378h-8.782L136.022,10.5V28.378h-5.587V.507h9.038l9.6,17.569V.507Z" transform="translate(0)" fill="#3a3a3a"/>
</svg>
